<svg width="146" height="38" viewBox="0 0 146 38" fill="none" xmlns="http://www.w3.org/2000/svg">
<path d="M9.4883 14.3939L18.1609 17.1334L21.0182 21.869L7.6478 21.4216L6.21474 18.7125C4.9766 16.372 7.05793 13.6262 9.4883 14.3939Z" fill="url(#paint0_linear_10_2301)"/>
<path d="M2.88941 19.9353L24.4027 20.5052L32.8471 34.4666C33.7534 35.965 32.7508 37.9421 31.0817 37.9477L15.4909 37.9999C13.5719 38.0063 11.7338 37.1742 10.4026 35.6964L0.793208 25.0292C-0.951277 23.0927 0.375432 19.8687 2.88941 19.9353Z" fill="url(#paint1_linear_10_2301)"/>
<path d="M21.7074 0.971191L16.6362 8.18671L24.5333 12.0045L26.3343 5.16798L21.7074 0.971191Z" fill="url(#paint2_linear_10_2301)"/>
<path d="M29.1092 36.8138L16.3535 14.1541C15.2743 12.2368 15.4094 9.87141 16.7001 8.08811C17.4447 7.05933 18.9245 6.90574 19.8666 7.75944L36.1529 22.5171C38.2528 24.4199 38.6984 27.5376 37.2149 29.9471L32.9411 36.8883C32.0548 38.3278 29.9383 38.2867 29.1092 36.8138Z" fill="url(#paint3_linear_10_2301)"/>
<path d="M33.9346 11.6955L22.3207 4.05558C20.3101 2.73294 21.5609 -0.380836 23.9344 0.0385269L29.4991 1.02172C30.8454 1.25959 31.9501 2.21618 32.3723 3.50961L34.8247 11.0223C34.9977 11.5525 34.4021 12.003 33.9346 11.6955Z" fill="url(#paint4_linear_10_2301)"/>
<path d="M73.4082 26.1518C72.2217 26.1518 71.2599 25.1998 71.2599 24.0254V10.1887C71.2599 9.01434 72.2217 8.06233 73.4082 8.06233C74.5947 8.06233 75.5565 9.01434 75.5565 10.1887V24.0254C75.5565 25.1998 74.5947 26.1518 73.4082 26.1518ZM73.4254 5.0813C72.6234 5.0813 71.9588 4.83288 71.4318 4.33604C70.9276 3.83921 70.6756 3.24074 70.6756 2.54065C70.6756 1.81798 70.9276 1.21951 71.4318 0.745256C71.9588 0.248419 72.6234 0 73.4254 0C74.2274 0 74.8805 0.237127 75.3846 0.711381C75.9117 1.16305 76.1752 1.73893 76.1752 2.43902C76.1752 3.18428 75.9231 3.81662 75.419 4.33604C74.9149 4.83288 74.2503 5.0813 73.4254 5.0813Z" fill="white"/>
<path d="M81.9691 26.1518C80.7827 26.1518 79.8208 25.1998 79.8208 24.0254V3.14263C79.8208 1.96827 80.7827 1.01626 81.9691 1.01626C83.1556 1.01626 84.1174 1.96827 84.1174 3.14263V24.0254C84.1174 25.1998 83.1556 26.1518 81.9691 26.1518Z" fill="white"/>
<path d="M90.53 26.1518C89.3436 26.1518 88.3818 25.1998 88.3818 24.0254V3.14263C88.3818 1.96827 89.3436 1.01626 90.53 1.01626C91.7165 1.01626 92.6783 1.96827 92.6783 3.14263V24.0254C92.6783 25.1998 91.7165 26.1518 90.53 26.1518Z" fill="white"/>
<path d="M126.73 26.1518C125.544 26.1518 124.582 25.1998 124.582 24.0254V10.1887C124.582 9.01434 125.544 8.06233 126.73 8.06233C127.916 8.06233 128.878 9.01434 128.878 10.1887V24.0254C128.878 25.1998 127.916 26.1518 126.73 26.1518ZM126.747 5.0813C125.945 5.0813 125.281 4.83288 124.754 4.33604C124.249 3.83921 123.997 3.24074 123.997 2.54065C123.997 1.81798 124.249 1.21951 124.754 0.745256C125.281 0.248419 125.945 0 126.747 0C127.549 0 128.202 0.237127 128.706 0.711381C129.233 1.16305 129.497 1.73893 129.497 2.43902C129.497 3.18428 129.245 3.81662 128.741 4.33604C128.237 4.83288 127.572 5.0813 126.747 5.0813Z" fill="white"/>
<path d="M135.291 26.1518C134.104 26.1518 133.143 25.1998 133.143 24.0254V3.14263C133.143 1.96827 134.104 1.01626 135.291 1.01626C136.477 1.01626 137.439 1.96827 137.439 3.14263V24.0254C137.439 25.1998 136.477 26.1518 135.291 26.1518Z" fill="white"/>
<path d="M143.852 26.1518C142.665 26.1518 141.704 25.1998 141.704 24.0254V3.14263C141.704 1.96827 142.665 1.01626 143.852 1.01626C145.038 1.01626 146 1.96827 146 3.14263V24.0254C146 25.1998 145.038 26.1518 143.852 26.1518Z" fill="white"/>
<path d="M63.454 8.54332C63.7934 8.23402 64.2379 8.06233 64.6992 8.06233C66.337 8.06233 67.1572 10.0224 65.999 11.1686L61.4787 15.6424L67.2292 22.8534C68.2942 24.1889 67.3331 26.1518 65.6141 26.1518C64.9946 26.1518 64.408 25.8755 64.0173 25.3996L58.2749 18.4052L55.0793 21.3837V24.0254C55.0793 25.1998 54.1175 26.1518 52.931 26.1518C51.7445 26.1518 50.7827 25.1998 50.7827 24.0254V3.14263C50.7827 1.96827 51.7445 1.01626 52.931 1.01626C54.1175 1.01626 55.0793 1.96827 55.0793 3.14263V16.1757L63.454 8.54332Z" fill="white"/>
<path fill-rule="evenodd" clip-rule="evenodd" d="M112.567 26.3889C111.009 26.3889 109.622 26.0501 108.408 25.3726C107.674 24.9634 107.033 24.4306 106.483 23.7742V24.1275C106.483 25.2455 105.567 26.1518 104.438 26.1518C103.308 26.1518 102.393 25.2455 102.393 24.1275V3.14263C102.393 1.96827 103.354 1.01626 104.541 1.01626C105.727 1.01626 106.689 1.96827 106.689 3.14263V10.2756C107.212 9.70272 107.808 9.23596 108.477 8.87534C109.714 8.19783 111.077 7.85908 112.567 7.85908C114.377 7.85908 115.97 8.243 117.345 9.01084C118.742 9.77868 119.842 10.8514 120.644 12.229C121.469 13.6066 121.882 15.2326 121.882 17.107C121.882 18.9815 121.469 20.6075 120.644 21.9851C119.842 23.3627 118.742 24.4467 117.345 25.2371C115.97 26.005 114.377 26.3889 112.567 26.3889ZM114.835 22.0867C114.033 22.5384 113.117 22.7642 112.086 22.7642C111.054 22.7642 110.126 22.5384 109.301 22.0867C108.477 21.6351 107.823 20.9801 107.342 20.122C106.861 19.2638 106.62 18.2588 106.62 17.107C106.62 15.9327 106.861 14.9277 107.342 14.0921C107.823 13.234 108.477 12.579 109.301 12.1274C110.126 11.6757 111.054 11.4499 112.086 11.4499C113.117 11.4499 114.033 11.6757 114.835 12.1274C115.66 12.579 116.313 13.234 116.795 14.0921C117.276 14.9277 117.517 15.9327 117.517 17.107C117.517 18.2588 117.276 19.2638 116.795 20.122C116.313 20.9801 115.66 21.6351 114.835 22.0867Z" fill="white"/>
<path d="M56.1596 36.2989H52.4673L51.9164 37.595C51.8257 37.8084 51.6107 37.9478 51.372 37.9478C50.9496 37.9478 50.6646 37.5303 50.8308 37.1548L53.4636 31.2039C53.6143 30.8633 53.9605 30.6424 54.3436 30.6424C54.7279 30.6424 55.075 30.8647 55.2249 31.2069L57.8222 37.1352C57.9911 37.5206 57.6985 37.9478 57.2655 37.9478C57.0204 37.9478 56.7995 37.8047 56.7063 37.5854L56.1596 36.2989ZM55.6889 35.203L54.3082 31.9574L52.9275 35.203H55.6889Z" fill="white"/>
<path d="M60.0953 31.566C60.0953 31.0559 60.523 30.6424 61.0505 30.6424H63.0136C63.934 30.6424 64.6453 30.8616 65.1474 31.2999C65.6564 31.7312 65.9109 32.3435 65.9109 33.1367C65.9109 33.9646 65.6564 34.6082 65.1474 35.0674C64.6453 35.5196 63.934 35.7457 63.0136 35.7457H61.3296V37.3511C61.3296 37.6806 61.0533 37.9478 60.7125 37.9478C60.3716 37.9478 60.0953 37.6806 60.0953 37.3511V31.566ZM61.3296 31.7486V34.6395H62.9613C64.1397 34.6395 64.729 34.149 64.729 33.168C64.729 32.2218 64.1397 31.7486 62.9613 31.7486H61.3296Z" fill="white"/>
<path d="M69.3088 37.3511C69.3088 37.6806 69.0325 37.9478 68.6916 37.9478C68.3508 37.9478 68.0745 37.6806 68.0745 37.3511V31.2391C68.0745 30.9095 68.3508 30.6424 68.6916 30.6424C69.0325 30.6424 69.3088 30.9095 69.3088 31.2391V37.3511Z" fill="white"/>
<path d="M80.7869 37.9478C80.5809 37.9478 80.3904 37.8421 80.2863 37.6702L79.1155 35.7353C79.0457 35.7423 78.9342 35.7457 78.7808 35.7457H77.0444V37.3511C77.0444 37.6806 76.7682 37.9478 76.4273 37.9478C76.0865 37.9478 75.8102 37.6806 75.8102 37.3511V31.566C75.8102 31.0559 76.2379 30.6424 76.7654 30.6424H78.7808C79.7152 30.6424 80.4404 30.8616 80.9564 31.2999C81.4724 31.7312 81.7304 32.3435 81.7304 33.1367C81.7304 33.7211 81.5979 34.2151 81.3329 34.6186C81.0749 35.0222 80.7018 35.3178 80.2137 35.5057L81.2732 37.0812C81.5241 37.4543 81.2472 37.9478 80.7869 37.9478ZM77.0444 34.6395H78.7808C79.9662 34.6395 80.5589 34.149 80.5589 33.168C80.5589 32.2218 79.9662 31.7486 78.7808 31.7486H77.0444V34.6395Z" fill="white"/>
<path d="M89.5402 31.1955C89.5402 31.501 89.2841 31.7486 88.9681 31.7486H85.5446V33.7211H88.5497C88.8657 33.7211 89.1218 33.9687 89.1218 34.2742C89.1218 34.5797 88.8657 34.8273 88.5498 34.8273H85.5446V36.8415H89.0937C89.4096 36.8415 89.6657 37.0892 89.6657 37.3947C89.6657 37.7002 89.4096 37.9478 89.0937 37.9478H85.2655C84.738 37.9478 84.3103 37.5343 84.3103 37.0242V31.566C84.3103 31.0559 84.738 30.6424 85.2655 30.6424H88.9681C89.2841 30.6424 89.5402 30.89 89.5402 31.1955Z" fill="white"/>
<path d="M97.0267 31.2006C97.0238 31.5041 96.7685 31.7486 96.4546 31.7486H93.3501V33.8568H96.1097C96.4226 33.8568 96.6763 34.1021 96.6763 34.4047C96.6763 34.7073 96.4226 34.9526 96.1097 34.9526H93.3501V37.3511C93.3501 37.6806 93.0738 37.9478 92.733 37.9478C92.3922 37.9478 92.1159 37.6806 92.1159 37.3511V30.6424H96.4546C96.7726 30.6424 97.0296 30.8931 97.0267 31.2006Z" fill="white"/>
<path d="M104.303 31.1955C104.303 31.501 104.047 31.7486 103.731 31.7486H100.308V33.7211H103.313C103.629 33.7211 103.885 33.9687 103.885 34.2742C103.885 34.5797 103.629 34.8273 103.313 34.8273H100.308V36.8415H103.857C104.173 36.8415 104.429 37.0892 104.429 37.3947C104.429 37.7002 104.173 37.9478 103.857 37.9478H100.029C99.5013 37.9478 99.0736 37.5343 99.0736 37.0242V31.566C99.0736 31.0559 99.5013 30.6424 100.029 30.6424H103.731C104.047 30.6424 104.303 30.89 104.303 31.1955Z" fill="white"/>
<path d="M111.856 37.9478C111.65 37.9478 111.459 37.8421 111.355 37.6702L110.184 35.7353C110.115 35.7423 110.003 35.7457 109.85 35.7457H108.113V37.3511C108.113 37.6806 107.837 37.9478 107.496 37.9478C107.155 37.9478 106.879 37.6806 106.879 37.3511V30.6424H109.85C110.784 30.6424 111.509 30.8616 112.025 31.2999C112.541 31.7312 112.799 32.3435 112.799 33.1367C112.799 33.7211 112.667 34.2151 112.402 34.6186C112.144 35.0222 111.771 35.3178 111.283 35.5057L112.342 37.0812C112.593 37.4543 112.316 37.9478 111.856 37.9478ZM108.113 34.6395H109.85C111.035 34.6395 111.628 34.149 111.628 33.168C111.628 32.2218 111.035 31.7486 109.85 31.7486H108.113V34.6395Z" fill="white"/>
<path d="M120.609 31.1955C120.609 31.501 120.353 31.7486 120.037 31.7486H116.614V33.7211H119.619C119.935 33.7211 120.191 33.9687 120.191 34.2742C120.191 34.5797 119.935 34.8273 119.619 34.8273H116.614V36.8415H120.163C120.479 36.8415 120.735 37.0892 120.735 37.3947C120.735 37.7002 120.479 37.9478 120.163 37.9478H116.334C115.807 37.9478 115.379 37.5343 115.379 37.0242V31.566C115.379 31.0559 115.807 30.6424 116.334 30.6424H120.037C120.353 30.6424 120.609 30.89 120.609 31.1955Z" fill="white"/>
<path d="M129.534 37.172C129.534 37.6004 129.175 37.9478 128.732 37.9478C128.473 37.9478 128.231 37.8278 128.08 37.6253L124.419 32.7088V37.3511C124.419 37.6806 124.143 37.9478 123.802 37.9478C123.461 37.9478 123.185 37.6806 123.185 37.3511V31.4187C123.185 30.99 123.544 30.6424 123.988 30.6424C124.245 30.6424 124.488 30.7621 124.639 30.9641L128.321 35.8918V31.229C128.321 30.905 128.592 30.6424 128.927 30.6424C129.262 30.6424 129.534 30.905 129.534 31.229V37.172Z" fill="white"/>
<path d="M135.653 30.6111C136.169 30.6111 136.671 30.712 137.159 30.9137C137.494 31.0454 137.796 31.2137 138.067 31.4186C138.291 31.5876 138.305 31.8992 138.131 32.1158C137.913 32.3867 137.496 32.3964 137.204 32.2001C137.069 32.1087 136.925 32.0278 136.772 31.9574C136.409 31.7904 136.043 31.7069 135.674 31.7069C134.941 31.7069 134.321 31.9574 133.812 32.4583C133.31 32.9523 133.059 33.5576 133.059 34.2742C133.059 34.9978 133.31 35.6101 133.812 36.111C134.321 36.605 134.941 36.852 135.674 36.852C136.247 36.852 136.775 36.6876 137.257 36.3587C137.522 36.1785 137.893 36.186 138.106 36.422C138.297 36.6351 138.289 36.9585 138.06 37.1338C137.778 37.3497 137.467 37.5306 137.128 37.6764C136.625 37.8921 136.12 38 135.611 38C134.537 38 133.634 37.6451 132.902 36.9355C132.17 36.2188 131.804 35.3352 131.804 34.2847C131.804 33.248 132.173 32.3783 132.912 31.6756C133.658 30.9659 134.572 30.6111 135.653 30.6111Z" fill="white"/>
<path d="M145.875 31.1955C145.875 31.501 145.618 31.7486 145.303 31.7486H141.879V33.7211H144.884C145.2 33.7211 145.456 33.9687 145.456 34.2742C145.456 34.5797 145.2 34.8273 144.884 34.8273H141.879V36.8415H145.428C145.744 36.8415 146 37.0892 146 37.3947C146 37.7002 145.744 37.9478 145.428 37.9478H141.6C141.072 37.9478 140.645 37.5343 140.645 37.0242V31.566C140.645 31.0559 141.072 30.6424 141.6 30.6424H145.303C145.618 30.6424 145.875 30.89 145.875 31.1955Z" fill="white"/>
<defs>
<linearGradient id="paint0_linear_10_2301" x1="6.74011" y1="15.3943" x2="18.3158" y2="21.3478" gradientUnits="userSpaceOnUse">
<stop stop-color="#004EEB"/>
<stop offset="1" stop-color="#2970FF"/>
</linearGradient>
<linearGradient id="paint1_linear_10_2301" x1="1.10544" y1="22.3302" x2="31.0888" y2="34.3396" gradientUnits="userSpaceOnUse">
<stop stop-color="#2970FF"/>
<stop offset="1" stop-color="#7CD4FD"/>
</linearGradient>
<linearGradient id="paint2_linear_10_2301" x1="21.0411" y1="10.2114" x2="25.262" y2="5.20044" gradientUnits="userSpaceOnUse">
<stop stop-color="#A6EF67"/>
<stop offset="1" stop-color="#FDE172"/>
</linearGradient>
<linearGradient id="paint3_linear_10_2301" x1="16.0809" y1="9.32766" x2="30.9546" y2="36.2614" gradientUnits="userSpaceOnUse">
<stop stop-color="#A6EF67"/>
<stop offset="1" stop-color="#15B79E"/>
</linearGradient>
<linearGradient id="paint4_linear_10_2301" x1="22.0407" y1="1.48676" x2="34.62" y2="9.98083" gradientUnits="userSpaceOnUse">
<stop stop-color="#FDE172"/>
<stop offset="1" stop-color="#EAAA08"/>
</linearGradient>
</defs>
</svg>
